<svg width="138" height="55" viewBox="0 0 138 55" fill="none" xmlns="http://www.w3.org/2000/svg">
<g id="Group 34830">
<g id="Group 204">
<g id="Group 180">
<path id="Vector" d="M102.253 54.555C98.5552 54.2913 95.0341 51.7896 91.329 51.6145C87.6239 51.4395 83.8151 53.591 80.0944 53.5129C76.3738 53.4349 72.7101 51.0956 68.9998 51.0956C65.2895 51.0956 61.6129 53.4159 57.9026 53.5129C54.1923 53.61 50.3732 51.4479 46.6681 51.6145C42.963 51.7812 39.4444 54.2913 35.7445 54.555C33.1095 54.7385 30.5988 52.376 28.0622 52.0238C25.4712 51.6694 22.2299 53.2345 19.8462 52.3823C17.4625 51.5302 16.4779 48.44 14.3792 47.1217C12.2805 45.8033 8.55728 45.9067 6.90423 44.1834C5.25118 42.4601 6.11139 39.3825 5.01281 37.3365C3.94791 35.3537 0.634042 33.8941 0.180619 31.6413C0.180619 31.6076 0.149525 31.4641 0.141752 31.4304L0.108072 31.2384C0.108072 31.2068 0.0795695 31.095 0.0743876 31.0612C-0.407536 28.6714 2.22232 26.2709 2.64206 23.9633C3.06957 21.6199 1.42429 18.6626 2.67574 16.5322C3.90127 14.4439 7.67116 13.79 9.59108 12.0161C11.441 10.316 11.9048 7.04862 14.3041 5.76404C16.5945 4.53641 20.2349 5.58265 22.9424 4.83173C25.4972 4.12511 27.6969 1.42514 30.5548 1.22265C34.8066 0.918902 39.2449 2.94599 43.5097 2.7456C47.7745 2.54522 51.9175 0.10683 56.1796 0.00347287C60.4418 -0.0998843 64.7428 2.13811 69.0076 2.13811C73.2724 2.13811 77.5579 -0.097775 81.8356 0.00347287C86.1133 0.104721 90.2459 2.53467 94.5055 2.7456C98.7651 2.95653 103.201 0.918902 107.46 1.22265C110.311 1.43358 112.518 4.12511 115.073 4.83173C117.78 5.58265 121.421 4.53641 123.711 5.76404C126.11 7.04862 126.561 10.316 128.427 12.0161C130.344 13.7795 134.127 14.4439 135.342 16.5343C136.594 18.6626 134.946 21.622 135.373 23.9633C135.793 26.2709 138.425 28.6714 137.941 31.0612C137.941 31.095 137.915 31.2068 137.91 31.2384L137.873 31.4304C137.873 31.4641 137.84 31.6054 137.835 31.6413C137.381 33.8899 134.067 35.3495 133.002 37.3365C131.904 39.3825 132.743 42.4769 131.111 44.1855C129.479 45.894 125.729 45.7991 123.636 47.1217C121.542 48.4442 120.581 51.5196 118.169 52.3823C115.757 53.2451 112.544 51.6694 109.953 52.0238C107.398 52.376 104.888 54.7385 102.253 54.555Z" fill="#FEBF1A"/>
<path id="Vector_2" opacity="0.5" d="M134.587 28.8488C134.587 28.8762 134.558 28.9796 134.553 29.0112C134.548 29.0428 134.527 29.1589 134.519 29.1905C134.511 29.2222 134.493 29.355 134.486 29.3824C134.159 30.9223 132.319 32.0634 130.957 33.2932C130.477 33.6983 130.076 34.1607 129.767 34.6642C129.473 35.2325 129.289 35.8345 129.221 36.4487C128.962 38.075 129.073 39.8827 127.925 41.0238C126.308 42.6227 122.673 42.5194 120.629 43.7491C118.585 44.9789 117.647 47.8306 115.297 48.6301C112.947 49.4295 109.809 47.972 107.278 48.2989C104.803 48.6195 102.355 50.8111 99.7844 50.6424C96.1751 50.3977 92.7421 48.0753 89.1251 47.9003C85.5081 47.7252 81.7822 49.7354 78.16 49.6531C74.5378 49.5709 70.9545 47.4109 67.3323 47.4109C63.7101 47.4109 60.1293 49.5709 56.5071 49.6531C52.8849 49.7354 49.1565 47.7378 45.5421 47.9003C41.9277 48.0627 38.492 50.3872 34.8828 50.6424C32.3099 50.8111 29.864 48.6195 27.3896 48.2989C24.8582 47.972 21.6895 49.4232 19.3576 48.6301C17.0257 47.837 16.0566 44.9746 14.0253 43.7491C11.994 42.5236 8.34587 42.6227 6.72909 41.0238C5.11232 39.425 5.9518 36.5626 4.88431 34.6642C3.84792 32.8249 0.614363 31.4707 0.166123 29.3909C0.166123 29.3635 0.140215 29.2264 0.132442 29.1989C0.124669 29.1715 0.0987583 29.0471 0.0987583 29.0196C0.0987583 28.9922 0.0728472 28.8846 0.0650742 28.8572C-0.409076 26.6382 2.1586 24.4065 2.57056 22.2677C2.98512 20.093 1.3813 17.3445 2.59906 15.3702C3.81683 13.3959 7.47789 12.8137 9.33563 11.1747C11.1493 9.59694 11.595 6.56161 13.9398 5.36984C16.1707 4.23291 19.7203 5.2011 22.3657 4.50502C24.8582 3.85324 27.0036 1.34103 29.7967 1.1533C33.9422 0.876974 38.2718 2.75849 42.4277 2.56865C46.5837 2.37881 50.6334 0.119716 54.7919 0.0374521C58.9504 -0.0448118 63.1452 2.016 67.3064 2.016C71.4675 2.016 75.6675 -0.0553584 79.8234 0.0374521C83.9794 0.130263 88.0317 2.39146 92.1876 2.56865C96.3436 2.74583 100.676 0.881192 104.819 1.1533C107.612 1.34524 109.757 3.85324 112.25 4.50502C114.895 5.2011 118.445 4.23291 120.676 5.36984C123.007 6.56161 123.476 9.58851 125.28 11.1747C127.15 12.8137 130.827 13.4275 132.029 15.3702C132.391 16.0137 132.55 16.7207 132.49 17.4268C132.441 18.1669 132.341 18.9042 132.19 19.6352C132.029 20.5486 131.902 21.4472 132.058 22.2677C132.493 24.3981 135.061 26.6298 134.587 28.8488Z" fill="url(#paint0_linear_1_2084)"/>
<path id="Vector_3" d="M133.511 28.6146C133.511 28.6462 133.482 28.7495 133.477 28.777C133.472 28.8044 133.449 28.9246 133.444 28.9563C133.428 29.0197 133.417 29.0838 133.41 29.1482C133.076 30.7091 131.184 31.8524 129.821 33.0969C129.383 33.4811 129.015 33.9153 128.731 34.3857C128.414 35.0102 128.221 35.6715 128.158 36.3452C127.943 37.9125 127.997 39.6041 126.901 40.6926C125.297 42.2809 121.688 42.1839 119.662 43.401C117.636 44.618 116.703 47.4488 114.371 48.2524C112.039 49.0561 108.93 47.5943 106.417 47.9191C103.958 48.2419 101.533 50.4124 98.9808 50.2394C95.3975 49.9989 91.9852 47.7082 88.407 47.5352C84.8289 47.3623 81.1238 49.3514 77.5249 49.2712C73.926 49.1911 70.3737 47.0459 66.7801 47.0459C63.1864 47.0459 59.6341 49.1889 56.0404 49.2712C52.4467 49.3535 48.7545 47.3728 45.1583 47.5352C41.562 47.6977 38.1626 49.9989 34.5793 50.2394C32.0349 50.4081 29.602 48.2376 27.1483 47.9191C24.6376 47.5943 21.5026 49.035 19.1966 48.2524C16.8906 47.4699 15.9216 44.6223 13.9032 43.401C12.5818 42.6121 10.5815 42.3779 8.91813 41.8611C8.02424 41.5933 7.22103 41.2515 6.66656 40.6968C5.85817 39.8974 5.67162 38.7752 5.54466 37.6108C5.42288 36.4866 5.36329 35.3222 4.83473 34.3899C3.79833 32.5632 0.598464 31.2259 0.157996 29.1524C0.157996 29.1187 0.124316 28.9879 0.124316 28.9605C0.124316 28.9331 0.090631 28.8149 0.0854491 28.7812C0.0794013 28.7267 0.0698881 28.6725 0.056948 28.6188C-0.40943 26.4208 2.12974 24.206 2.5443 22.0798C2.73603 21.08 2.49766 19.9579 2.30333 18.8484C2.16552 18.1801 2.10308 17.503 2.11679 16.8255C2.12615 16.2757 2.28079 15.734 2.57021 15.2372C3.75947 13.3114 7.40758 12.706 9.26532 11.0797C11.0583 9.51248 11.5039 6.50456 13.8306 5.31912C16.0485 4.19274 19.5723 5.15459 22.1918 4.47539C24.6636 3.82149 26.7959 1.3367 29.5605 1.15108C32.5557 0.940147 35.6493 1.88091 38.7041 2.33652C39.8197 2.51507 40.9572 2.58587 42.0931 2.54746C43.728 2.47574 45.3396 2.07918 46.9512 1.62146C49.4101 0.925378 51.8611 0.0816615 54.3537 0.0289283C58.4837 -0.0638822 62.6448 1.9927 66.7723 1.9927C70.8997 1.9927 75.0634 -0.0638822 79.1883 0.0289283C83.3131 0.121739 87.3344 2.36183 91.4566 2.54746C95.5789 2.73308 99.8695 0.859991 103.987 1.14897C106.754 1.33459 108.878 3.81938 111.353 4.47327C113.977 5.16302 117.499 4.20117 119.719 5.31701C122.051 6.50245 122.491 9.51037 124.282 11.0776C126.14 12.6997 129.79 13.3093 130.972 15.2351C132.19 17.1989 130.591 19.9178 131.005 22.0777C131.42 24.2377 133.977 26.4166 133.511 28.6146Z" fill="#FEBF1A"/>
<path id="Vector_4" d="M130.956 33.2927C130.476 33.6979 130.075 34.1602 129.767 34.6638C129.472 35.2321 129.288 35.834 129.22 36.4483C104.639 38.1568 90.2385 34.5499 89.5234 34.3643C102.636 36.482 118.439 35.1532 130.956 33.2927Z" fill="url(#paint1_linear_1_2084)"/>
<path id="Vector_5" d="M48.0651 39.3485C39.0562 42.3395 18.7196 42.1497 8.94118 41.8565C8.04729 41.5886 7.24409 41.2469 6.68962 40.6922C5.88123 39.8927 5.69468 38.7706 5.56772 37.6062C12.4908 38.8908 29.112 41.306 48.0651 39.3485Z" fill="url(#paint2_linear_1_2084)"/>
<path id="Vector_6" d="M59.6589 45.1597C59.6589 45.1597 92.7122 43.2613 96.1919 42.2973C99.6716 41.3334 96.5365 42.2973 96.5365 42.2973C96.5365 42.2973 80.9672 47.8617 59.6589 45.1597Z" fill="url(#paint3_linear_1_2084)"/>
<path id="Vector_7" d="M11.3768 18.293C8.38394 18.6923 5.35392 18.8779 2.32134 18.8478C2.18352 18.1795 2.12108 17.5025 2.13479 16.825C5.16468 17.5065 8.25448 17.9973 11.3768 18.293Z" fill="url(#paint4_linear_1_2084)"/>
<path id="Vector_8" d="M46.9689 1.61279C44.5878 3.84446 34.9934 4.1714 28.4356 3.7411C31.1561 3.51118 35.5012 2.85308 38.7218 2.32575C39.8374 2.50429 40.9749 2.57509 42.1108 2.53668C43.7458 2.46707 45.3573 2.07052 46.9689 1.61279Z" fill="url(#paint5_linear_1_2084)"/>
<path id="Vector_9" d="M132.512 17.418C132.463 18.1581 132.363 18.8954 132.212 19.6264C129.424 19.2462 126.729 18.5004 124.234 17.418H132.512Z" fill="url(#paint6_linear_1_2084)"/>
<path id="Vector_10" d="M124.032 27.6966C122.011 38.3403 111.401 45.706 99.7024 45.706C98.9846 45.706 98.2618 45.6765 97.5311 45.6217C77.7683 44.0355 57.8618 44.0355 38.099 45.6217C25.5742 46.6025 13.7438 38.9942 11.6062 27.6924C11.4147 26.6789 11.3177 25.6551 11.316 24.6296C11.316 24.4187 11.316 24.2078 11.3316 23.9968C11.7098 14.1315 21.0555 5.3398 34.0442 4.30623C56.5065 2.50697 79.1315 2.50697 101.594 4.30623C114.575 5.3398 123.928 14.1315 124.306 24.001C124.356 25.2372 124.264 26.4743 124.032 27.6966Z" fill="#562500"/>
<path id="Vector_11" d="M123.597 23.7905C123.575 24.6382 123.485 25.4838 123.325 26.3217C121.317 36.8472 110.78 44.1392 99.1617 44.1392C98.444 44.1392 97.716 44.1118 96.9905 44.0569C77.3522 42.4876 57.5724 42.4876 37.9341 44.0569C25.4844 45.0336 13.7369 37.499 11.6045 26.3217C11.4477 25.4835 11.3568 24.6381 11.3324 23.7905C11.5571 18.8683 13.9693 14.18 18.1205 10.5968C22.2718 7.01351 27.8799 4.77908 33.9025 4.30873C56.2241 2.53056 78.7056 2.53056 101.027 4.30873C107.049 4.77994 112.657 7.01464 116.808 10.5977C120.959 14.1808 123.372 18.8686 123.597 23.7905Z" fill="black"/>
<path id="Vector_12" d="M121.927 22.5014C121.925 23.3823 121.831 24.2615 121.647 25.1296C119.706 34.36 109.505 40.7386 98.2579 40.7386C97.5584 40.7386 96.8614 40.7154 96.1618 40.6669C77.1416 39.2937 58.0094 39.2937 38.9891 40.6669C29.4206 41.3461 20.2692 37.3173 15.8775 30.7278C14.7126 28.9769 13.909 27.0821 13.499 25.1191C13.313 24.244 13.2185 23.3578 13.2166 22.4697C13.2166 13.6802 22.3342 5.75751 35.0819 4.83573C56.6995 3.27904 78.4437 3.27904 100.061 4.83573C112.83 5.76805 121.94 13.7076 121.927 22.5014Z" fill="#FBA11D"/>
<path id="Vector_13" opacity="0.55" d="M39.7221 10.5329C43.6844 10.5329 46.8966 9.76701 46.8966 8.82224C46.8966 7.87746 43.6844 7.11157 39.7221 7.11157C35.7598 7.11157 32.5477 7.87746 32.5477 8.82224C32.5477 9.76701 35.7598 10.5329 39.7221 10.5329Z" fill="#F9BE93"/>
<path id="Vector_14" opacity="0.55" d="M28.4247 10.6218C28.7071 11.32 27.6319 12.2376 26.0203 12.67C24.4087 13.1024 22.8722 12.8809 22.5898 12.187C22.3074 11.493 23.3826 10.5712 24.9942 10.1388C26.6058 9.70637 28.1475 9.92153 28.4247 10.6218Z" fill="#F9BE93"/>
</g>
</g>
</g>
<defs>
<linearGradient id="paint0_linear_1_2084" x1="58057.2" y1="63492.8" x2="58917.3" y2="78807.5" gradientUnits="userSpaceOnUse">
<stop stop-color="#F8A45B"/>
<stop offset="0.39" stop-color="#CC7937"/>
<stop offset="0.79" stop-color="#A55318"/>
<stop offset="1" stop-color="#96440C"/>
</linearGradient>
<linearGradient id="paint1_linear_1_2084" x1="24693.4" y1="4591.92" x2="24693.7" y2="4669.16" gradientUnits="userSpaceOnUse">
<stop offset="0.38" stop-color="#96440C"/>
<stop offset="0.4" stop-color="#9A4810"/>
<stop offset="0.5" stop-color="#B76427"/>
</linearGradient>
<linearGradient id="paint2_linear_1_2084" x1="11561.9" y1="5665.29" x2="11561.3" y2="5843.04" gradientUnits="userSpaceOnUse">
<stop offset="0.38" stop-color="#96440C"/>
<stop offset="0.4" stop-color="#9A4810"/>
<stop offset="0.5" stop-color="#B76427"/>
</linearGradient>
<linearGradient id="paint3_linear_1_2084" x1="18088.2" y1="5313.42" x2="18088.3" y2="5367.52" gradientUnits="userSpaceOnUse">
<stop offset="0.38" stop-color="#96440C"/>
<stop offset="0.4" stop-color="#9A4810"/>
<stop offset="0.5" stop-color="#B76427"/>
</linearGradient>
<linearGradient id="paint4_linear_1_2084" x1="1803.03" y1="2402.18" x2="1802.3" y2="2444.36" gradientUnits="userSpaceOnUse">
<stop offset="0.38" stop-color="#96440C"/>
<stop offset="0.4" stop-color="#9A4810"/>
<stop offset="0.5" stop-color="#B76427"/>
</linearGradient>
<linearGradient id="paint5_linear_1_2084" x1="5840.12" y1="2545.33" x2="5840.4" y2="2570.83" gradientUnits="userSpaceOnUse">
<stop offset="0.38" stop-color="#96440C"/>
<stop offset="0.4" stop-color="#9A4810"/>
<stop offset="0.5" stop-color="#B76427"/>
</linearGradient>
<linearGradient id="paint6_linear_1_2084" x1="5628.82" y1="2613.82" x2="5626.73" y2="2667.05" gradientUnits="userSpaceOnUse">
<stop offset="0.38" stop-color="#96440C"/>
<stop offset="0.4" stop-color="#9A4810"/>
<stop offset="0.5" stop-color="#B76427"/>
</linearGradient>
</defs>
</svg>
