<svg width="569" height="295" viewBox="0 0 569 295" fill="none" xmlns="http://www.w3.org/2000/svg">
<path style="mix-blend-mode:screen" d="M675.861 92.9994C706.042 81.1542 712.144 84.091 719.14 66.3722C726.136 48.6533 734.271 46.7934 775.516 41.8008L783 40.8218V0C775.683 0.592648 768.433 2.06848 761.361 4.40524C738.257 12.2368 705.066 17.1315 691.969 26.0398C678.871 34.9482 684.972 40.8218 660.811 49.6323C636.65 58.4428 578.24 80.1753 551.151 90.0626C524.061 99.9499 420.42 138.226 379.175 138.226C337.931 138.226 312.793 149.093 316.779 138.226C320.766 127.36 314.827 118.648 297.743 121.487C280.955 122.862 264.385 126.843 248.445 133.332C233.314 141.163 230.304 139.205 196.136 140.184C170.056 140.134 144.062 143.781 118.691 151.051C93.9592 158.263 68.7024 162.558 43.2785 163.875C18.1412 164.854 0 182.572 0 191.383C0 200.193 19.1174 203.228 77.4459 210.179C135.774 217.129 164.898 209.102 165.955 219.968C167.013 230.834 170.999 231.813 226.318 234.75C281.636 237.687 317.837 243.658 307.668 257.364C297.499 271.069 291.398 282.033 365.02 284.97C438.643 287.906 447.51 281.054 480.701 287.906C513.892 294.759 536.996 298.773 598.334 289.864C659.672 280.956 635.593 270.286 700.917 268.23C728.384 267.498 755.779 264.555 782.919 259.419V126.381C775.125 128.17 767.121 128.17 759.327 126.381C735.654 123.347 732.156 137.15 665.774 137.15C599.392 137.15 604.435 127.36 610.455 117.571C616.475 107.781 645.68 104.747 675.861 92.9994ZM450.601 225.842C444.581 236.708 422.454 233.771 389.263 233.771C356.072 233.771 354.038 230.834 354.038 230.834C339.964 229.855 348.018 218.989 378.443 218.01C408.868 217.031 408.624 210.179 432.704 210.179C456.784 210.179 456.621 215.073 450.601 225.842ZM694.002 222.905C720.197 220.947 711.086 232.694 694.979 235.729C684.991 237.507 674.887 238.163 664.798 237.687C641.694 236.708 667.726 224.863 694.002 222.905Z" fill="#7A5603"/>
</svg>
