<svg width="37" height="37" viewBox="0 0 37 37" fill="none" xmlns="http://www.w3.org/2000/svg">
<g id="Group 34900">
<g id="Group 165">
<circle id="Ellipse 289" cx="18.5" cy="18.5" r="18" stroke="black"/>
</g>
<path id="Vector" d="M18.9973 14.6652C17.1611 14.6652 15.6626 16.1638 15.6626 18C15.6626 19.8362 17.1611 21.3348 18.9973 21.3348C20.8335 21.3348 22.332 19.8362 22.332 18C22.332 16.1638 20.8335 14.6652 18.9973 14.6652ZM28.9989 18C28.9989 16.6191 29.0114 15.2506 28.9338 13.8722C28.8563 12.2711 28.4911 10.8502 27.3203 9.67938C26.147 8.50609 24.7286 8.14334 23.1275 8.06579C21.7466 7.98824 20.3782 8.00074 18.9998 8.00074C17.6189 8.00074 16.2505 7.98824 14.8721 8.06579C13.271 8.14334 11.8501 8.50859 10.6793 9.67938C9.50608 10.8527 9.14334 12.2711 9.06579 13.8722C8.98824 15.2531 9.00074 16.6216 9.00074 18C9.00074 19.3784 8.98824 20.7494 9.06579 22.1278C9.14334 23.7289 9.50858 25.1498 10.6793 26.3206C11.8526 27.4939 13.271 27.8567 14.8721 27.9342C16.253 28.0118 17.6214 27.9993 18.9998 27.9993C20.3807 27.9993 21.7491 28.0118 23.1275 27.9342C24.7286 27.8567 26.1495 27.4914 27.3203 26.3206C28.4936 25.1473 28.8563 23.7289 28.9338 22.1278C29.0139 20.7494 28.9989 19.3809 28.9989 18ZM18.9973 23.131C16.1579 23.131 13.8664 20.8394 13.8664 18C13.8664 15.1606 16.1579 12.869 18.9973 12.869C21.8367 12.869 24.1282 15.1606 24.1282 18C24.1282 20.8394 21.8367 23.131 18.9973 23.131ZM24.3383 13.8572C23.6754 13.8572 23.14 13.3218 23.14 12.6589C23.14 11.9959 23.6754 11.4606 24.3383 11.4606C25.0013 11.4606 25.5366 11.9959 25.5366 12.6589C25.5368 12.8163 25.5059 12.9722 25.4458 13.1177C25.3856 13.2632 25.2974 13.3954 25.1861 13.5067C25.0748 13.618 24.9426 13.7062 24.7971 13.7664C24.6516 13.8265 24.4957 13.8574 24.3383 13.8572Z" fill="black"/>
</g>
</svg>
